<svg height="512" viewBox="0 0 96 96" width="512" xmlns="http://www.w3.org/2000/svg" xmlns:xlink="http://www.w3.org/1999/xlink"><linearGradient id="New_Gradient_Swatch_1" gradientUnits="userSpaceOnUse" x1="33.586" x2="62.414" y1="61.586" y2="32.757"><stop offset="0" stop-color="#34cdfa"/><stop offset="1" stop-color="#e8d9f1"/></linearGradient><g id="_27-qr_code" data-name="27-qr code"><g id="Flat"><g fill="#01c0f9"><path d="m8 16h-8v-12a4 4 0 0 1 4-4h12v8h-8z"/><path d="m96 16h-8v-8h-8v-8h12a4 4 0 0 1 4 4z"/><path d="m16 96h-12a4 4 0 0 1 -4-4v-12h8v8h8z"/><path d="m92 96h-12v-8h8v-8h8v12a4 4 0 0 1 -4 4z"/></g><path d="m72 40h-16a4 4 0 0 1 -4-4v-16a4 4 0 0 1 4-4h16a4 4 0 0 1 4 4v16a4 4 0 0 1 -4 4zm-12-8h8v-8h-8z" fill="#99e6fd"/><path d="m36 80h-16a4 4 0 0 1 -4-4v-16a4 4 0 0 1 4-4h16a4 4 0 0 1 4 4v16a4 4 0 0 1 -4 4zm-12-8h8v-8h-8z" fill="#99e6fd"/><path d="m80 52h-4v-4a4 4 0 0 0 -4-4h-24v-16h-8v8h-4v-8h-8v8h-4v-12h12v-8h-16a4 4 0 0 0 -4 4v20a4 4 0 0 0 4 4h8v8h8v-8h4v4a4 4 0 0 0 4 4h12v4h-8v8h8v4h-8v8h8v4h8v-28h4v4a4 4 0 0 0 4 4h4v12h8v-16a4 4 0 0 0 -4-4z" fill="url(#New_Gradient_Swatch_1)"/></g></g></svg>